<?xml version="1.0" standalone="no"?>
<!DOCTYPE svg PUBLIC "-//W3C//DTD SVG 20010904//EN"
 "http://www.w3.org/TR/2001/REC-SVG-20010904/DTD/svg10.dtd">
<svg version="1.0" xmlns="http://www.w3.org/2000/svg"
 width="1208.000000pt" height="617.000000pt" viewBox="0 0 1208.000000 617.000000"
 preserveAspectRatio="xMidYMid meet">
<metadata>
Created by potrace 1.15, written by Peter Selinger 2001-2017
</metadata>
<g transform="translate(0.000000,617.000000) scale(0.100000,-0.100000)"
fill="#000000" stroke="none">
<path d="M4370 4595 c0 -5 240 -881 266 -972 15 -50 17 -53 48 -53 l33 0 121
438 c66 240 124 453 128 472 6 31 11 20 45 -105 21 -77 81 -288 132 -470 l94
-330 34 0 33 0 141 510 141 510 -34 3 c-19 2 -36 1 -39 -2 -5 -5 -130 -463
-203 -741 -21 -82 -41 -143 -43 -135 -3 8 -60 210 -128 448 l-123 432 -42 0
c-41 0 -44 -2 -53 -37 -6 -21 -50 -180 -99 -353 -49 -173 -100 -359 -113 -413
l-23 -98 -13 58 c-7 32 -61 235 -120 451 l-106 392 -38 0 c-22 0 -39 -2 -39
-5z"/>
<path d="M5838 4335 c-67 -22 -148 -99 -184 -177 -28 -60 -29 -70 -29 -203 0
-136 1 -142 31 -206 61 -128 159 -192 294 -193 99 0 166 23 229 80 94 85 138
240 113 401 -22 137 -76 225 -174 278 -46 25 -66 30 -143 32 -59 2 -106 -2
-137 -12z m258 -90 c39 -25 56 -44 84 -99 34 -67 35 -72 35 -185 0 -132 -16
-193 -66 -254 -112 -136 -349 -104 -420 58 -42 96 -44 272 -4 367 21 52 73
108 120 130 31 14 58 18 121 16 70 -3 87 -7 130 -33z"/>
<path d="M6648 4340 c-42 -12 -95 -48 -117 -78 l-19 -27 -7 40 c-10 63 -13 67
-42 63 l-28 -3 -3 -382 -2 -383 40 0 40 0 0 253 c0 138 5 272 11 297 25 109
92 159 214 160 87 0 128 -22 155 -83 18 -38 20 -68 20 -334 l0 -293 40 0 40 0
0 263 c0 158 4 278 11 302 26 95 97 145 206 145 86 0 129 -21 157 -75 20 -37
21 -60 24 -337 l3 -298 35 0 35 0 -3 313 c-3 301 -4 313 -25 354 -41 76 -112
113 -218 113 -89 0 -151 -24 -207 -82 -41 -42 -47 -46 -53 -29 -9 31 -80 89
-122 100 -44 13 -146 13 -185 1z"/>
<path d="M7841 4339 c-69 -21 -135 -76 -179 -150 -54 -90 -69 -281 -32 -402
61 -197 255 -278 500 -210 66 18 80 28 80 58 0 34 -7 35 -68 13 -43 -16 -83
-21 -162 -22 -98 -1 -108 1 -157 28 -79 44 -123 119 -136 233 l-6 53 277 2
277 3 -3 75 c-5 144 -50 235 -145 294 -42 26 -60 30 -130 33 -45 1 -97 -2
-116 -8z m198 -77 c60 -28 98 -96 116 -209 l7 -43 -237 0 -238 0 7 42 c30 184
191 282 345 210z"/>
<path d="M8599 4334 c-25 -7 -67 -32 -92 -54 l-46 -41 -7 51 c-7 50 -7 51 -38
48 l-31 -3 -3 -382 -2 -383 40 0 40 0 0 245 c0 268 7 325 50 383 44 61 87 77
205 77 87 0 104 -3 131 -22 65 -47 69 -66 72 -390 l3 -293 35 0 35 0 -3 308
c-3 292 -4 309 -25 347 -29 55 -70 91 -122 110 -54 19 -180 19 -242 -1z"/>
<path d="M474 4051 c-68 -42 -64 61 -64 -1472 l0 -1382 25 -42 c44 -76 38 -75
509 -75 l416 0 0 175 0 175 -300 0 -300 0 0 1145 0 1145 300 0 300 0 0 175 0
175 -427 0 c-401 0 -430 -1 -459 -19z"/>
<path d="M2980 3895 l0 -175 300 0 300 0 0 -1145 0 -1145 -300 0 -300 0 0
-175 0 -175 419 0 c417 0 418 0 451 22 18 13 43 36 54 51 l21 28 3 1377 c2
947 0 1388 -8 1414 -5 20 -26 50 -45 67 l-36 31 -429 0 -430 0 0 -175z"/>
<path d="M1080 2575 l0 -885 273 0 272 0 270 500 c206 381 272 496 281 485 5
-7 129 -232 274 -499 l264 -486 273 0 273 0 0 885 0 885 -275 0 -275 0 0 -377
0 -378 -133 245 -134 245 -274 0 -274 0 -130 -240 -130 -240 -3 373 -2 372
-275 0 -275 0 0 -885z"/>
<path d="M6557 3223 c-4 -3 -7 -253 -7 -555 l0 -548 34 0 34 0 5 263 c2 157 9
277 16 298 32 103 102 151 226 157 69 3 86 0 125 -20 83 -43 84 -50 90 -393
l5 -300 35 0 35 0 0 290 c0 319 -5 351 -57 411 -52 59 -100 78 -198 78 -116 1
-173 -17 -232 -74 l-48 -46 0 223 0 223 -28 0 c-16 0 -32 -3 -35 -7z"/>
<path d="M9240 2676 l0 -556 35 0 35 0 0 139 0 140 58 50 c31 28 61 51 65 52
5 0 72 -85 150 -188 l142 -188 43 -3 c23 -2 42 -1 42 3 0 3 -67 94 -149 203
-81 109 -154 207 -162 219 -13 22 0 39 250 306 l35 37 -45 0 -46 0 -189 -208
-189 -209 -5 376 -5 376 -32 3 -33 3 0 -555z"/>
<path d="M4340 3125 l0 -35 165 0 165 0 2 -482 3 -483 38 -3 37 -3 0 485 0
486 171 0 170 0 -3 33 -3 32 -372 3 -373 2 0 -35z"/>
<path d="M5343 2892 c-149 -53 -228 -189 -227 -392 1 -175 65 -295 192 -357
53 -26 66 -28 172 -28 88 1 128 6 170 20 51 18 55 23 58 54 3 31 2 33 -20 27
-116 -33 -148 -38 -228 -34 -164 8 -243 87 -266 266 l-7 52 278 0 278 0 -5 93
c-8 142 -61 237 -162 289 -56 29 -167 34 -233 10z m184 -63 c70 -26 123 -109
131 -206 l5 -63 -233 0 -233 0 6 49 c11 93 73 183 147 215 41 18 136 21 177 5z"/>
<path d="M6101 2895 c-70 -20 -111 -46 -160 -102 -58 -65 -83 -138 -89 -258
-10 -220 73 -361 243 -411 70 -20 209 -15 269 10 30 13 36 20 36 45 0 36 2 35
-70 16 -72 -19 -176 -19 -231 0 -57 20 -112 75 -141 139 -20 45 -23 67 -23
176 0 109 3 131 23 175 46 99 114 145 227 153 46 3 92 -1 134 -12 35 -9 66
-15 67 -13 2 2 6 17 10 33 5 29 3 31 -38 43 -67 21 -195 23 -257 6z"/>
<path d="M7540 2901 c-49 -16 -87 -40 -118 -75 l-31 -36 -7 50 c-6 49 -7 50
-40 50 l-34 0 2 -382 3 -383 35 0 35 0 5 275 5 275 30 60 c36 71 79 97 171
103 79 5 144 -21 171 -70 16 -29 19 -68 23 -338 l5 -305 35 0 35 0 5 285 c5
270 6 287 27 327 41 77 109 109 216 101 65 -5 101 -26 132 -79 18 -31 20 -57
25 -334 l5 -300 33 -3 32 -3 0 299 c0 249 -3 306 -16 346 -55 161 -290 198
-428 66 l-50 -48 -28 39 c-39 54 -95 80 -182 85 -39 2 -82 0 -96 -5z"/>
<path d="M8685 2896 c-33 -8 -77 -22 -98 -31 -32 -13 -37 -19 -31 -38 11 -38
19 -39 100 -11 97 32 205 32 251 -2 40 -29 65 -87 71 -164 l4 -67 -32 -7 c-18
-3 -69 -6 -114 -6 -90 0 -187 -20 -245 -49 -134 -69 -162 -245 -56 -347 52
-51 118 -69 211 -61 74 7 129 33 189 88 l44 40 6 -48 c9 -69 12 -73 40 -73
l26 0 -3 313 c-3 337 -4 342 -62 405 -55 62 -181 86 -301 58z m292 -460 c-12
-167 -102 -256 -256 -256 -117 1 -178 60 -169 162 12 115 113 165 342 167 l89
1 -6 -74z"/>
<path d="M10073 2896 c-133 -43 -212 -151 -234 -318 -21 -149 13 -279 96 -367
71 -76 126 -96 265 -95 88 0 128 5 170 19 51 18 55 23 58 54 3 31 2 33 -20 27
-116 -33 -148 -38 -228 -34 -164 8 -243 87 -266 266 l-7 52 277 0 276 0 0 69
c0 139 -64 262 -163 312 -51 27 -166 34 -224 15z m174 -67 c70 -26 123 -109
131 -206 l5 -63 -232 0 -231 0 0 29 c0 87 69 198 144 232 46 21 139 25 183 8z"/>
<path d="M10831 2898 c-35 -12 -103 -72 -133 -118 -17 -25 -17 -24 -17 43 l-1
67 -35 0 -35 0 2 -382 3 -383 35 0 35 0 5 266 5 266 30 58 c20 40 45 69 74 90
40 28 49 30 127 30 l83 -1 7 29 c3 16 3 31 0 34 -11 12 -152 12 -185 1z"/>
<path d="M11229 2896 c-108 -29 -159 -85 -159 -173 0 -107 56 -161 237 -229
153 -58 213 -106 213 -170 0 -51 -25 -91 -73 -116 -37 -20 -56 -23 -157 -22
-94 0 -125 4 -170 22 -30 12 -58 22 -62 22 -5 0 -8 -17 -8 -38 0 -38 1 -39 53
-56 73 -24 210 -32 291 -16 129 24 197 96 197 205 0 106 -50 152 -256 233 -60
24 -124 54 -141 67 -40 30 -58 75 -50 119 16 86 171 121 334 76 39 -11 74 -20
76 -20 2 0 9 13 14 30 13 37 2 45 -96 65 -81 18 -181 18 -243 1z"/>
<path d="M7270 1305 c0 -449 1 -465 19 -465 19 0 31 25 31 70 0 23 1 23 38
-13 47 -46 107 -67 189 -67 161 0 256 104 270 293 10 148 -30 276 -103 332
-45 35 -145 59 -207 50 -60 -7 -101 -27 -144 -68 l-33 -31 0 182 0 182 -30 0
-30 0 0 -465z m375 112 c30 -16 48 -37 70 -82 28 -55 30 -68 30 -165 -1 -87
-5 -113 -23 -155 -41 -90 -91 -125 -179 -125 -102 0 -164 41 -194 127 -18 49
-18 245 0 296 16 48 57 96 96 113 50 22 153 17 200 -9z"/>
<path d="M8720 1305 l0 -465 30 0 30 0 0 465 0 465 -30 0 -30 0 0 -465z"/>
<path d="M4500 1695 c0 -22 5 -25 50 -31 l50 -7 0 -377 0 -378 -22 -6 c-13 -3
-35 -6 -50 -6 -23 0 -28 -4 -28 -25 l0 -25 135 0 135 0 0 25 c0 21 -5 25 -27
25 -16 0 -38 3 -50 6 l-23 6 0 378 0 377 50 7 c45 6 50 9 50 31 l0 25 -135 0
-135 0 0 -25z"/>
<path d="M5527 1643 c-2 -4 -10 -38 -17 -75 l-12 -66 -49 -12 c-42 -10 -49
-16 -49 -36 0 -22 4 -24 50 -24 l50 0 0 -240 c0 -260 4 -283 54 -330 22 -20
40 -25 96 -28 96 -6 120 1 120 36 l0 28 -68 -4 c-62 -4 -71 -2 -98 21 l-29 25
-3 246 -3 245 93 3 93 3 3 28 3 27 -95 0 -95 0 -3 77 c-2 63 -6 78 -20 81 -9
2 -18 -1 -21 -5z"/>
<path d="M5037 1500 c-119 -21 -184 -117 -143 -213 20 -50 76 -92 168 -127
108 -42 137 -57 170 -88 55 -51 42 -123 -29 -158 -55 -27 -208 -26 -280 3
l-53 21 0 -38 c0 -35 3 -40 38 -52 23 -8 84 -13 162 -13 115 0 129 2 170 25
64 36 90 79 90 151 0 51 -4 63 -32 94 -34 39 -100 76 -187 106 -156 54 -205
138 -118 203 39 29 162 35 242 11 60 -17 68 -15 79 22 6 19 1 24 -43 37 -66
19 -174 27 -234 16z"/>
<path d="M6068 1500 c-72 -12 -148 -40 -148 -54 0 -7 6 -20 13 -30 13 -18 16
-18 73 3 79 30 174 32 212 5 37 -28 60 -79 64 -144 l3 -55 -115 -6 c-170 -8
-237 -34 -287 -108 -33 -48 -33 -153 0 -202 34 -52 97 -79 182 -79 81 0 134
21 179 69 37 39 46 39 46 2 0 -45 10 -61 36 -61 l24 0 0 243 c0 278 -8 327
-62 372 -18 15 -41 30 -52 35 -37 13 -119 18 -168 10z m212 -393 c0 -120 -70
-202 -182 -214 -106 -11 -168 31 -168 114 0 116 58 144 328 162 21 1 22 -3 22
-62z"/>
<path d="M6757 1500 c-48 -13 -109 -44 -128 -66 -13 -16 -14 -14 -19 17 -4 28
-10 35 -32 37 l-28 3 0 -325 0 -326 29 0 29 0 4 228 c3 221 4 229 28 277 35
68 88 95 184 95 54 0 79 -5 104 -20 60 -37 66 -66 70 -337 l4 -243 29 0 29 0
0 249 c0 255 -4 289 -42 344 -41 58 -167 90 -261 67z"/>
<path d="M7990 1239 c0 -232 2 -254 21 -299 32 -73 79 -102 180 -108 99 -6
161 11 211 56 l38 34 0 -25 c0 -43 10 -57 41 -57 l29 0 0 325 0 325 -34 0 -34
0 -4 -227 c-3 -210 -5 -231 -24 -268 -40 -74 -96 -104 -194 -105 -72 0 -119
24 -145 76 -17 35 -20 65 -23 282 l-4 242 -29 0 -29 0 0 -251z"/>
</g>
</svg>
