<svg id="Layer_1" data-name="Layer 1" xmlns="http://www.w3.org/2000/svg" xmlns:xlink="http://www.w3.org/1999/xlink" viewBox="0 0 902.01 298.17"><defs><style>.cls-1{fill:none;}.cls-2{fill:#417ec1;}.cls-3{fill:#20b9a1;}.cls-4{font-size:85px;fill:#fff;font-family:ProductSans-Regular, Product Sans;}.cls-5{letter-spacing:0em;}.cls-6{letter-spacing:-0.01em;}.cls-7{letter-spacing:0em;}.cls-8{letter-spacing:0em;}.cls-9{clip-path:url(#clip-path);}.cls-10{clip-path:url(#clip-path-2);}.cls-11{clip-path:url(#clip-path-3);}.cls-12{fill:#34c1f0;}.cls-13{fill:#61c3a4;}</style><clipPath id="clip-path" transform="translate(-671.88 464.45)"><rect class="cls-1" x="671.88" y="-464.45" width="356.37" height="298.17" rx="15.6" ry="15.6"/></clipPath><clipPath id="clip-path-2" transform="translate(-671.88 464.45)"><path class="cls-2" d="M766.79-166.28H671.88V-464.45h94.92q0,17.2,0,34.41H707.38q.61,54.7.83,109.42.24,60.21,0,120.42l58.58-.08Z"/></clipPath><clipPath id="clip-path-3" transform="translate(-671.88 464.45)"><path class="cls-3" d="M933.33-464.45h94.92v298.17H933.33q0-17.2,0-34.41h59.42q-.61-54.7-.83-109.42-.24-60.21,0-120.42l-58.58.08Z"/></clipPath></defs><title>WTM IWD colored</title><text class="cls-4" transform="translate(399.58 128.44)">WTM I<tspan class="cls-5" x="233.58" y="0">s</tspan><tspan class="cls-6" x="271.83" y="0">t</tspan><tspan class="cls-7" x="301.07" y="0">an</tspan><tspan class="cls-8" x="390.48" y="0">b</tspan><tspan x="439.02" y="0">ul</tspan><tspan x="0" y="102">IWD 2</tspan><tspan class="cls-6" x="220.06" y="102">0</tspan><tspan x="273.44" y="102">18</tspan></text><g class="cls-9"><path class="cls-2" d="M766.79-166.28H671.88V-464.45h94.92q0,17.2,0,34.41H707.38q.61,54.7.83,109.42.24,60.21,0,120.42l58.58-.08Z" transform="translate(-671.88 464.45)"/><g class="cls-10"><rect class="cls-2" width="354.08" height="298.17" rx="15.77" ry="15.77"/><path class="cls-2" d="M931-166.28H1026V-464.45H931q0,17.2,0,34.41h59.42q-.61,54.7-.83,109.42-.24,60.21,0,120.42L931-200.28Z" transform="translate(-671.88 464.45)"/></g><path class="cls-3" d="M933.33-464.45h94.92v298.17H933.33q0-17.2,0-34.41h59.42q-.61-54.7-.83-109.42-.24-60.21,0-120.42l-58.58.08Z" transform="translate(-671.88 464.45)"/><g class="cls-11"><rect class="cls-3" x="674.17" y="-464.45" width="354.08" height="298.17" rx="15.77" ry="15.77" transform="translate(1030.54 -166.28) rotate(180)"/><path class="cls-3" d="M769.08-464.45H674.17v298.17h94.92q0-17.2,0-34.41H709.67q.61-54.7.83-109.42.24-60.21,0-120.42l58.58.08Z" transform="translate(-671.88 464.45)"/></g><polygon class="cls-12" points="132.23 226.58 84.67 226.58 155.96 94.83 203.53 94.83 132.23 226.58"/><path class="cls-13" d="M878.09-367.48Q871-354.78,864-341.77q-5,9.14-9.8,18.21l46.47,85.69h47.56Z" transform="translate(-671.88 464.45)"/><path class="cls-3" d="M901-392.87h47.56l.2,149.41-3.64-6.79c-8-15-12.06-22.45-16.25-30-1.08-2-3.37-6.09-6.42-11.79-1.48-2.76-2.55-4.79-2.85-5.35-2.38-4.5-7.39-13.83-18.59-34.36Q901-362.33,901-392.87Z" transform="translate(-671.88 464.45)"/><path class="cls-2" d="M803.73-392.87H756.17L756-243.46l3.64-6.79c8-15,12.06-22.45,16.25-30,1.08-2,3.37-6.09,6.42-11.79,1.48-2.76,2.55-4.79,2.85-5.35,2.38-4.5,7.39-13.83,18.59-34.36Q803.72-362.33,803.73-392.87Z" transform="translate(-671.88 464.45)"/></g></svg>